# xmcd CD database file generated by Grip 3.0.5
# 
# Track frame offsets:
#       150
#       12835
#       25742
#       35320
#       47103
#       59835
#       72222
#       88206
#       100951
#       114908
#       126974
#       143575
#       153644
#       167665
#       179253
#       190986
#       203368
#       215777
#       227945
#       241716
#       254439
#       268143
# 
# Disc length: 3734 seconds
# 
# Revision: 1
# Processed by: cddbd v1.4PL0 Copyright (c) Steve Scherf et al.
# Submitted via: Grip 3.0.5
# 
DISCID=3b0e9416
DTITLE=Various Artist - Bluegrass Legends
DYEAR=2002
DGENRE=Bluegrass
TTITLE0=Uncle David Macon - Cumberland Mountain Deer Race
TTITLE1=Gid Tanner and Riley Puckett - On Tanner's Farm
TTITLE2=The Monroe Brothers - Darling Corey
TTITLE3=The Dixon Brothers - Intoxicated Rat
TTITLE4=Arthur Smith Trio - The Paris Waltz
TTITLE5=The Blue Sky Boys - Are You From Dixie
TTITLE6=The Monroe Brothers - On the Banks of the Ohio
TTITLE7=Wade Mainer and Zeke Morris - Going to Georgia
TTITLE8=The Blue Sky Boys - Little Bessie
TTITLE9=Arthur Smith Trio - Freight Train Moan
TTITLE10=The Monroe Brothers - New River Train
TTITLE11=Charlie Monroe's Boys - The Great Speckled Bird
TTITLE12=Bill Monroe and His Blue Grass Boys - Dog House Blues
TTITLE13=Bill Monroe and His Blue Grass Boys - Orange Blossom Special
TTITLE14=The Morris Brothers - Salty Dog Blues
TTITLE15=Charlie Monroe and His Kentucky Pardner - End of Memory Lane
TTITLE16=Merle Travis with Cowboy Band - Steel Guitar Rag
TTITLE17=The Delmore Brothers - Going Back to the Blue Ridge Mountains
TTITLE18=Bill Monroe and His Blue Grass Boys - Blue Moon of Kentucky
TTITLE19=Bill Monroe and His Blue Grass Boys - Kentucky Waltz
TTITLE20=Brownsferry Four - Will the Circle Be Unbroken
TTITLE21=Lester Flatt and Earl Scruggs - Foggy Mountain Breakdown
EXTD=ID3G: 89
EXTT0=
EXTT1=
EXTT2=
EXTT3=
EXTT4=
EXTT5=
EXTT6=
EXTT7=
EXTT8=
EXTT9=
EXTT10=
EXTT11=
EXTT12=
EXTT13=
EXTT14=
EXTT15=
EXTT16=
EXTT17=
EXTT18=
EXTT19=
EXTT20=
EXTT21=
PLAYORDER=
